<?xml version="1.0" encoding="UTF-8" standalone="no"?>
<!-- Created with Inkscape (http://www.inkscape.org/) -->

<svg
   version="1.1"
   id="svg1"
   width="1024"
   height="1024"
   viewBox="0 0 1024 1024"
   sodipodi:docname="icon.svg"
   xmlns:inkscape="http://www.inkscape.org/namespaces/inkscape"
   xmlns:sodipodi="http://sodipodi.sourceforge.net/DTD/sodipodi-0.dtd"
   xmlns:xlink="http://www.w3.org/1999/xlink"
   xmlns="http://www.w3.org/2000/svg"
   xmlns:svg="http://www.w3.org/2000/svg">
  <defs
     id="defs1" />
  <sodipodi:namedview
     id="namedview1"
     borderopacity="0.25"
     />
  <g
     inkscape:groupmode="layer"
     inkscape:label="Image"
     id="g1">
    <path
       style="fill:#60a5fa;stroke:none"
       d="m 261,150 c 8.03305,17.22601 31.97241,29.48315 18.0054,52 -11.62445,18.7403 -33.56119,14.38605 -51.0054,21.87885 -10.49815,4.50927 -18.21886,13.14367 -15.60957,25.12115 4.90913,22.53455 30.71376,17.29486 46.60957,23.22913 5.27005,1.9674 14.55594,5.80108 16.22687,11.78552 1.45953,5.22729 -1.43857,13.68194 -2.30713,18.98535 -2.11072,12.88782 -3.49292,26.01025 -4.74997,39 -3.70358,38.27142 -4.11404,76.74707 -0.004,115 6.75519,62.86987 47.22315,111.83856 59.43442,173 9.48587,47.51105 9.8165,95.98718 30.09412,141 6.29165,13.96643 16.89929,38.20563 34.30557,40 3.43146,-18.48401 0.88968,-38.22913 3.28549,-57 3.76605,-29.50659 16.34815,-54.62573 34.36576,-78 8.03686,-10.42627 19.10852,-25.82941 32.34875,-29.91589 7.18484,-2.21753 18.68085,2.44958 26,3.66894 17.56339,2.92615 37.19977,5.77112 55,4.07715 20.01801,-1.90497 39.41296,-4.30688 59,-9.20361 5.73218,-1.43311 16.13745,-6.82361 21.13037,-2.38507 9.31354,8.27948 15.62695,21.78082 21.11652,32.75848 13.00372,26.00403 23.67437,52.45886 23.67437,82 0,17.66315 -8.94482,40.00507 -3.92126,57 26.98724,-6.2464 43.50079,-35.17981 53,-59 17.44781,-43.75208 18.02301,-98.21851 9.38892,-144 -2.85218,-15.12329 -8.35682,-29.19592 -12.23304,-44 C 706.65485,538.35217 733.67548,537.15765 751,525.47992 769.79712,512.80957 776.48975,488.13416 768.90973,467 759.94098,441.9939 733.00482,425.47113 707,430.46063 c -7.59827,1.45789 -20.46515,11.13642 -27.42438,9.95526 C 673.55212,439.39355 666.51996,433.02716 661,430.24768 646.16663,422.77856 630.935,415.57336 615,410.7207 569.35028,396.81903 525.09595,397 478,397 c -19.29327,0 -38.8157,2.112 -58,4.16589 -10.30331,1.10309 -23.39374,1.48194 -31.95679,-5.55944 C 378.06622,387.40234 378.46887,373.60583 377.96063,362 377.40985,349.42322 375.25565,336.50323 373.71527,324 367.39279,272.67981 360.34821,214.24823 318,178.75385 304.54636,167.4776 280.2486,139.91034 261,150 M 68,530 c 47.00086,-47.00073 91.99713,-95.99713 139,-143 12.45648,-12.45648 45.1825,-35.5722 31.86652,-55.98456 C 221.62645,304.58783 191.71234,343.00586 180.42438,356 144.79669,397.0127 104.42214,435.57788 66,474 c -11.848083,11.84808 -23.160774,24.16077 -35,36 -4.921446,4.92145 -13.236723,10.66962 -16.248457,17 -2.281548,4.79559 5.706255,10.79407 8.533951,14 11.285078,12.79474 23.960092,24.66614 35.753858,37 C 99.240669,620.0423 139.87003,661.87 181,703 c 12.0383,12.03833 28.53572,39.86725 49,31.85181 C 261.90381,722.35583 224.12901,689.12903 213,678 178.50197,643.50195 145.50127,607.50122 111,573 97.01532,559.01532 84.210983,541.41925 68,530 m 884,-1 c -47.00262,47.00305 -91.99939,95.99939 -139,143 -12.27478,12.27478 -45.65564,35.83685 -31.34802,55.98535 C 800.60089,754.66992 829.73712,712.58582 842.01465,700 880.68665,660.35693 918.84503,620.15491 958,581 c 11.17871,-11.17871 21.81812,-22.81812 33,-34 4.33728,-4.33728 12.7875,-10.08746 14.8241,-16 1.7466,-5.07068 -6.76978,-10.94568 -9.8241,-14 -11.83362,-11.83362 -23.15399,-24.15399 -35,-36 -40.9931,-40.9931 -80.04187,-83.97595 -121,-125 -11.93909,-11.95831 -30.1095,-40.52185 -49.99921,-32.04474 -32.28589,13.76038 7.47486,45.78876 18.28473,58.04474 29.73773,33.71588 63.10633,65.01538 94.71063,97 15.76868,15.9585 30.69275,37.09277 49.00385,50 z"
       id="path1" />
  </g>
</svg>
